<svg xmlns="http://www.w3.org/2000/svg" width="46" height="46" viewBox="0 0 46 46">
  <g fill="none" fill-rule="evenodd">
    <path d="M23 9c3.54 0 6.73 1.22 9.24 3.23l6.92-6.92C34.2 1.98 28.92 0 23 0 13.8 0 5.44 5.8 1.67 14.14l8.06 6.26C11.5 13.98 16.75 9 23 9z" fill="#EA4335"/>
    <path d="M44.5 23.5c0-1.56-.14-3.06-.41-4.5H23v9h12.13c-.52 2.8-2.1 5.17-4.47 6.77l7.01 5.45C41.98 36.2 44.5 30.36 44.5 23.5z" fill="#4285F4"/>
    <path d="M9.73 27.6A13.5 13.5 0 0 1 9 23c0-1.6.28-3.15.73-4.6l-8.06-6.26A22.97 22.97 0 0 0 0 23c0 3.64.88 7.08 2.44 10.1l8.29-5.5z" fill="#FBBC05"/>
    <path d="M23 46c6.22 0 11.44-2.05 15.25-5.58l-7.01-5.45C29.01 36.32 26.21 37.5 23 37.5c-6.25 0-11.5-4.98-12.97-11.64l-8.29 5.5C5.44 40.2 13.8 46 23 46z" fill="#34A853"/>
    <path d="M44.5 23.5c0-1.56-.14-3.06-.41-4.5H23v9h12.13c-.52 2.8-2.1 5.17-4.47 6.77l7.01 5.45C41.98 36.2 44.5 30.36 44.5 23.5z" fill-opacity=".1"/>
  </g>
</svg>
